# xmcd
#
# Track frame offsets:
#	150
#	19558
#	39595
#	56156
#	76590
#	95235
#
# Disc length: 1434 seconds
#
# Revision: 1
# Processed by: cddbd v1.5.2PL0 Copyright (c) Steve Scherf et al.
# Submitted via: audiograbber 1.83.01
#
DISCID=41059806
DTITLE=Carson McHone - selftitled
DYEAR=2012
DGENRE=
TTITLE0=Pale Blues
TTITLE1=Mr. Caine
TTITLE2=Egg Song
TTITLE3=Ol' Lucifer
TTITLE4=Pale Disguise
TTITLE5=Hey Darlin
EXTD=
EXTT0=
EXTT1=
EXTT2=
EXTT3=
EXTT4=
EXTT5=
PLAYORDER=
